<svg width="259" height="72" viewBox="0 0 259 72" fill="none" xmlns="http://www.w3.org/2000/svg">
<path d="M0 36C0 16.1178 13.9849 0 31.2362 0H227.764C245.015 0 259 16.1178 259 36C259 55.8822 245.015 72 227.764 72H31.2362C13.9849 72 0 55.8822 0 36Z" fill="#FF9900"/>
<path fill-rule="evenodd" clip-rule="evenodd" d="M40.3467 37.7069H32.5377V46.7069H29.9347V37.7069H22.1256V34.7069H29.9347V25.7069H32.5377V34.7069H40.3467V37.7069Z" fill="black"/>
<path d="M68.7092 38.139H65.3372V36.0985H68.7092C69.2964 36.0985 69.7709 35.9891 70.1327 35.7704C70.4945 35.5516 70.7585 35.2508 70.9245 34.868C71.0965 34.4784 71.1825 34.034 71.1825 33.535C71.1825 33.0633 71.0965 32.6224 70.9245 32.2123C70.7585 31.7953 70.4945 31.4603 70.1327 31.2074C69.7709 30.9545 69.2964 30.828 68.7092 30.828H66.0223V43.7069H63.7891V28.7772H68.7092C69.7116 28.7772 70.5627 28.9823 71.2626 29.3924C71.9685 29.7958 72.5052 30.3563 72.873 31.0741C73.2407 31.785 73.4246 32.5985 73.4246 33.5145C73.4246 34.4784 73.2407 35.3055 72.873 35.996C72.5052 36.6864 71.9685 37.2162 71.2626 37.5853C70.5627 37.9545 69.7116 38.139 68.7092 38.139Z" fill="black"/>
<path d="M77.0533 28.7772H81.6353C82.6199 28.7772 83.4592 28.9481 84.1531 29.2899C84.8471 29.6317 85.378 30.1376 85.7457 30.8075C86.1194 31.4706 86.3062 32.2909 86.3062 33.2684C86.3062 34.0135 86.1876 34.6698 85.9503 35.2372C85.7131 35.8046 85.378 36.2831 84.945 36.6727C84.512 37.0555 83.996 37.3529 83.3969 37.5648L82.7207 37.9442H78.6014L78.5836 35.9037H81.6709C82.2047 35.9037 82.6495 35.7943 83.0054 35.5756C83.3613 35.3568 83.6282 35.0594 83.8062 34.6835C83.99 34.3006 84.082 33.87 84.082 33.3915C84.082 32.8719 83.993 32.4208 83.8151 32.038C83.643 31.6483 83.3761 31.3509 83.0143 31.1459C82.6525 30.9339 82.1928 30.828 81.6353 30.828H79.2865V43.7069H77.0533V28.7772ZM84.4467 43.7069L81.404 37.0008L83.7439 36.9906L86.8311 43.5736V43.7069H84.4467Z" fill="black"/>
<path d="M100.487 35.8319V36.6522C100.487 37.7801 100.359 38.7919 100.104 39.6874C99.8492 40.5829 99.4844 41.3451 99.0099 41.974C98.5413 42.6029 97.9778 43.0848 97.3195 43.4198C96.6611 43.7479 95.9315 43.912 95.1308 43.912C94.336 43.912 93.6094 43.7479 92.951 43.4198C92.2986 43.0848 91.7321 42.6029 91.2517 41.974C90.7713 41.3451 90.3976 40.5829 90.1307 39.6874C89.8697 38.7919 89.7392 37.7801 89.7392 36.6522V35.8319C89.7392 34.704 89.8697 33.6957 90.1307 32.807C90.3916 31.9115 90.7594 31.1493 91.2339 30.5204C91.7143 29.8846 92.2808 29.4027 92.9332 29.0746C93.5916 28.7396 94.3182 28.5721 95.113 28.5721C95.9137 28.5721 96.6433 28.7396 97.3017 29.0746C97.9601 29.4027 98.5265 29.8846 99.001 30.5204C99.4755 31.1493 99.8403 31.9115 100.095 32.807C100.356 33.6957 100.487 34.704 100.487 35.8319ZM98.2537 36.6522V35.8114C98.2537 34.9774 98.1825 34.2425 98.0401 33.6068C97.9037 32.9642 97.6991 32.4276 97.4262 31.9969C97.1593 31.5594 96.8301 31.2313 96.4387 31.0126C96.0472 30.787 95.6053 30.6742 95.113 30.6742C94.6207 30.6742 94.1818 30.787 93.7962 31.0126C93.4107 31.2313 93.0815 31.5594 92.8087 31.9969C92.5418 32.4276 92.3371 32.9642 92.1948 33.6068C92.0524 34.2425 91.9813 34.9774 91.9813 35.8114V36.6522C91.9813 37.4862 92.0524 38.2245 92.1948 38.8671C92.3371 39.5096 92.5447 40.0531 92.8176 40.4974C93.0963 40.9349 93.4285 41.2665 93.814 41.4921C94.1996 41.7108 94.6385 41.8202 95.1308 41.8202C95.629 41.8202 96.0709 41.7108 96.4565 41.4921C96.842 41.2665 97.1682 40.9349 97.4351 40.4974C97.702 40.0531 97.9037 39.5096 98.0401 38.8671C98.1825 38.2245 98.2537 37.4862 98.2537 36.6522Z" fill="black"/>
<path d="M106.58 28.7772V43.7069H104.347V28.7772H106.58ZM111.865 35.3089V37.3495H106.011V35.3089H111.865ZM112.603 28.7772V30.828H106.011V28.7772H112.603Z" fill="black"/>
<path d="M118.394 28.7772V43.7069H116.161V28.7772H118.394Z" fill="black"/>
<path d="M130.911 41.6664V43.7069H124.407V41.6664H130.911ZM125.03 28.7772V43.7069H122.797V28.7772H125.03Z" fill="black"/>
<path d="M142.743 41.6664V43.7069H135.865V41.6664H142.743ZM136.497 28.7772V43.7069H134.264V28.7772H136.497ZM141.844 35.0116V37.0214H135.865V35.0116H141.844ZM142.698 28.7772V30.828H135.865V28.7772H142.698Z" fill="black"/>
<ellipse cx="221.908" cy="37.9415" rx="25.3794" ry="26.25" fill="black"/>
<path d="M222.558 36.7821C224.16 36.7821 225.726 36.2848 227.057 35.3532C228.389 34.4216 229.427 33.0974 230.04 31.5482C230.653 29.999 230.813 28.2943 230.501 26.6496C230.188 25.005 229.417 23.4943 228.285 22.3086C227.152 21.1229 225.709 20.3154 224.138 19.9882C222.567 19.6611 220.939 19.829 219.459 20.4707C217.979 21.1124 216.715 22.1991 215.825 23.5934C214.935 24.9876 214.46 26.6268 214.46 28.3037C214.46 30.5523 215.313 32.7088 216.832 34.2988C218.351 35.8888 220.41 36.7821 222.558 36.7821ZM222.558 22.2477C223.702 22.2477 224.821 22.6029 225.772 23.2683C226.723 23.9338 227.465 24.8796 227.902 25.9862C228.34 27.0928 228.455 28.3104 228.232 29.4852C228.008 30.6599 227.457 31.739 226.648 32.5859C225.84 33.4329 224.809 34.0096 223.687 34.2433C222.565 34.477 221.402 34.357 220.345 33.8987C219.288 33.4403 218.384 32.6641 217.749 31.6682C217.113 30.6723 216.774 29.5015 216.774 28.3037C216.774 26.6975 217.383 25.1572 218.468 24.0215C219.553 22.8858 221.024 22.2477 222.558 22.2477Z" fill="#FF9900"/>
<path d="M236.985 45.7084C235.129 43.6554 232.894 42.0202 230.414 40.9026C227.935 39.785 225.263 39.2086 222.564 39.2086C219.864 39.2086 217.193 39.785 214.714 40.9026C212.234 42.0202 209.999 43.6554 208.143 45.7084C207.741 46.1582 207.518 46.7515 207.519 47.3677V53.7386C207.519 54.3811 207.762 54.9972 208.196 55.4515C208.63 55.9058 209.219 56.161 209.832 56.161H235.284C235.898 56.161 236.486 55.9058 236.92 55.4515C237.354 54.9972 237.598 54.3811 237.598 53.7386V47.3677C237.602 46.7532 237.383 46.16 236.985 45.7084ZM235.284 53.7386H209.832V47.3556C211.472 45.5481 213.446 44.1088 215.633 43.1252C217.821 42.1417 220.177 41.6345 222.558 41.6345C224.939 41.6345 227.295 42.1417 229.483 43.1252C231.671 44.1088 233.644 45.5481 235.284 47.3556V53.7386Z" fill="#FF9900"/>
</svg>
