<svg width="120" height="120" viewBox="0 0 120 120" fill="none" xmlns="http://www.w3.org/2000/svg">
<path d="M15 20C12.3478 20 9.8043 21.0536 7.92893 22.9289C6.05357 24.8043 5 27.3478 5 30V85H15C15 88.9782 16.5804 92.7936 19.3934 95.6066C22.2064 98.4197 26.0218 100 30 100C33.9782 100 37.7936 98.4197 40.6066 95.6066C43.4197 92.7936 45 88.9782 45 85H75C75 88.9782 76.5803 92.7936 79.3934 95.6066C82.2064 98.4197 86.0218 100 90 100C93.9782 100 97.7936 98.4197 100.607 95.6066C103.42 92.7936 105 88.9782 105 85H115V60L100 40H85V20M50 30L70 50L50 70V55H20V45H50M85 47.5H97.5L107.35 60H85M30 77.5C31.9891 77.5 33.8968 78.2902 35.3033 79.6967C36.7098 81.1032 37.5 83.0109 37.5 85C37.5 86.9891 36.7098 88.8968 35.3033 90.3033C33.8968 91.7098 31.9891 92.5 30 92.5C28.0109 92.5 26.1032 91.7098 24.6967 90.3033C23.2902 88.8968 22.5 86.9891 22.5 85C22.5 83.0109 23.2902 81.1032 24.6967 79.6967C26.1032 78.2902 28.0109 77.5 30 77.5ZM90 77.5C91.9891 77.5 93.8968 78.2902 95.3033 79.6967C96.7098 81.1032 97.5 83.0109 97.5 85C97.5 86.9891 96.7098 88.8968 95.3033 90.3033C93.8968 91.7098 91.9891 92.5 90 92.5C88.0109 92.5 86.1032 91.7098 84.6967 90.3033C83.2902 88.8968 82.5 86.9891 82.5 85C82.5 83.0109 83.2902 81.1032 84.6967 79.6967C86.1032 78.2902 88.0109 77.5 90 77.5Z" fill="#FE9E0D"/>
</svg>
