<svg width="47" height="67" viewBox="0 0 47 67" fill="none" xmlns="http://www.w3.org/2000/svg">
<path d="M23.49 2.03637e-09C17.2789 0.00535172 11.3222 2.54605 6.921 7.06718C2.51975 11.5883 0.0316065 17.7225 0 24.1299C0 33.7366 5.22444 41.7799 9.05303 47.6426L9.75095 48.7123C13.5602 54.4077 17.6466 59.9003 21.9945 65.1692L23.51 67L25.0255 65.1692C29.3728 59.8999 33.4592 54.4072 37.269 48.7123L37.9669 47.622C41.7756 41.7593 47 33.7366 47 24.1299C46.9684 17.7189 44.4775 11.5816 40.0719 7.05993C35.6664 2.53822 29.7046 -8.30168e-05 23.49 2.03637e-09ZM23.49 34.9708C20.9028 34.9708 18.3738 34.1794 16.2226 32.6966C14.0714 31.2138 12.3948 29.1062 11.4047 26.6404C10.4147 24.1746 10.1556 21.4612 10.6603 18.8435C11.1651 16.2258 12.4109 13.8213 14.2403 11.9341C16.0698 10.0468 18.4006 8.76157 20.938 8.24087C23.4755 7.72018 26.1057 7.98742 28.4959 9.00879C30.8862 10.0302 32.9291 11.7598 34.3665 13.979C35.8039 16.1982 36.5711 18.8072 36.5711 21.4762C36.5711 25.0552 35.1929 28.4876 32.7397 31.0183C30.2865 33.5491 26.9593 34.9708 23.49 34.9708Z" fill="#FE9E0D"/>
<path d="M23.4896 29.1492C27.5974 29.1492 30.9274 25.7139 30.9274 21.4762C30.9274 17.2385 27.5974 13.8032 23.4896 13.8032C19.3818 13.8032 16.0518 17.2385 16.0518 21.4762C16.0518 25.7139 19.3818 29.1492 23.4896 29.1492Z" fill="#FE9E0D"/>
</svg>
