<svg width="26" height="31" viewBox="0 0 26 31" fill="none" xmlns="http://www.w3.org/2000/svg">
<path d="M23.5524 13.4733L23.5524 13.4733C24.5168 14.0865 24.9163 14.8322 24.9163 15.5C24.9163 16.1679 24.5168 16.9136 23.5524 17.5269L3.71952 30.1391C3.36126 30.3669 2.86243 30.4957 2.33737 30.4957C1.81232 30.4957 1.3135 30.3669 0.955263 30.1391L0.684615 30.5647L0.955256 30.1391C0.599522 29.9129 0.50436 29.6743 0.50436 29.5136C0.50436 29.353 0.599499 29.1145 0.955191 28.8884L0.955258 28.8883L20.7884 16.276C21.0412 16.1152 21.2502 15.8465 21.2502 15.5001C21.2502 15.1537 21.0413 14.885 20.7886 14.7241L20.7884 14.724L0.955255 2.1118L0.95525 2.1118C0.599518 1.88559 0.504357 1.64706 0.504355 1.48636C0.504354 1.32566 0.599502 1.08715 0.955218 0.860938C1.31348 0.63312 1.81231 0.504355 2.33737 0.504355C2.86242 0.504355 3.36125 0.633117 3.71951 0.860932C3.71952 0.860934 3.71952 0.860936 3.71952 0.860938L23.5524 13.4733Z" fill="black" stroke="black"/>
</svg>
