<svg width="232" height="40" viewBox="0 0 232 40" fill="none" xmlns="http://www.w3.org/2000/svg">
<path d="M9.70801 36.6667L12.4163 24.9583L3.33301 17.0833L15.333 16.0417L19.9997 5L24.6663 16.0417L36.6663 17.0833L27.583 24.9583L30.2913 36.6667L19.9997 30.4583L9.70801 36.6667Z" fill="#FE9E0D"/>
<path d="M57.708 36.6667L60.4163 24.9583L51.333 17.0833L63.333 16.0417L67.9997 5L72.6663 16.0417L84.6663 17.0833L75.583 24.9583L78.2913 36.6667L67.9997 30.4583L57.708 36.6667Z" fill="#FE9E0D"/>
<path d="M105.708 36.6667L108.416 24.9583L99.333 17.0833L111.333 16.0417L116 5L120.666 16.0417L132.666 17.0833L123.583 24.9583L126.291 36.6667L116 30.4583L105.708 36.6667Z" fill="#FE9E0D"/>
<path d="M153.708 36.6667L156.416 24.9583L147.333 17.0833L159.333 16.0417L164 5L168.666 16.0417L180.666 17.0833L171.583 24.9583L174.291 36.6667L164 30.4583L153.708 36.6667Z" fill="#FE9E0D"/>
<path d="M201.708 36.6667L204.416 24.9583L195.333 17.0833L207.333 16.0417L212 5L216.666 16.0417L228.666 17.0833L219.583 24.9583L222.291 36.6667L212 30.4583L201.708 36.6667Z" fill="#FE9E0D"/>
</svg>
