<svg width="141" height="141" viewBox="0 0 141 141" fill="none" xmlns="http://www.w3.org/2000/svg">
<path d="M116.178 132.628L106.925 123.522H111.625C111.625 125.186 111.061 126.581 109.933 127.705C108.809 128.833 107.415 129.397 105.75 129.397C104.086 129.397 102.691 128.833 101.567 127.705C100.439 126.581 99.8754 125.186 99.8754 123.522V116.472L8.0785 24.675C6.9035 23.5 6.3395 22.1037 6.3865 20.4861C6.43742 18.8725 7.05038 17.4781 8.22538 16.3031C9.40038 15.1281 10.7967 14.5406 12.4143 14.5406C14.0279 14.5406 15.4223 15.1281 16.5973 16.3031L124.55 124.403C125.725 125.578 126.313 126.949 126.313 128.516C126.313 130.082 125.725 131.453 124.55 132.628C123.375 133.803 121.981 134.391 120.367 134.391C118.75 134.391 117.354 133.803 116.178 132.628ZM111.625 94.7344L99.4347 82.5438L82.2504 65.3594V41.125C82.2504 32.9979 85.1154 26.0713 90.8455 20.3451C96.5717 14.615 103.498 11.75 111.625 11.75V94.7344ZM70.5004 53.6094L58.7504 41.8594V17.625C58.7504 15.9604 59.3144 14.5641 60.4424 13.4361C61.5665 12.312 62.9608 11.75 64.6254 11.75C66.29 11.75 67.6863 12.312 68.8143 13.4361C69.9383 14.5641 70.5004 15.9604 70.5004 17.625V53.6094ZM52.8754 35.9844L41.1254 24.2344V17.625C41.1254 15.9604 41.6874 14.5641 42.8115 13.4361C43.9395 12.312 45.3358 11.75 47.0004 11.75C48.665 11.75 50.0613 12.312 51.1893 13.4361C52.3133 14.5641 52.8754 15.9604 52.8754 17.625V35.9844ZM35.2504 18.3594L28.641 11.75C30.5014 11.75 32.0681 12.3865 33.341 13.6594C34.6139 14.9323 35.2504 16.499 35.2504 18.3594ZM41.1254 123.375V75.4938C36.1316 74.1229 31.9467 71.3813 28.5705 67.2688C25.1904 63.1563 23.5004 58.3583 23.5004 52.875V23.3531L35.2504 35.1031V52.875H41.1254V40.9781L52.8754 52.7281V52.875H53.0222L66.241 66.0938C64.6743 68.3458 62.7415 70.2787 60.4424 71.8924C58.1394 73.51 55.617 74.7104 52.8754 75.4938V123.375C52.8754 125.04 52.3133 126.434 51.1893 127.558C50.0613 128.686 48.665 129.25 47.0004 129.25C45.3358 129.25 43.9395 128.686 42.8115 127.558C41.6874 126.434 41.1254 125.04 41.1254 123.375Z" fill="#FE9E0D"/>
</svg>
