<svg width="43" height="42" viewBox="0 0 43 42" fill="none" xmlns="http://www.w3.org/2000/svg">
<path d="M42.5201 0.44671C42.7439 0.665565 42.8945 0.945593 42.9521 1.24983C43.0096 1.55407 42.9714 1.86822 42.8425 2.15081L25.1319 41.0911C25.0081 41.3634 24.8057 41.5945 24.5494 41.756C24.2931 41.9174 23.9942 42.0022 23.6893 42C23.3843 41.9977 23.0867 41.9084 22.833 41.7432C22.5793 41.5779 22.3805 41.3438 22.261 41.0697L15.8711 26.4885L0.946856 20.2411C0.667358 20.1237 0.428952 19.9291 0.260797 19.6813C0.0926418 19.4335 0.0020265 19.1432 3.3594e-05 18.8459C-0.00195931 18.5486 0.0847567 18.2572 0.249576 18.0072C0.414395 17.7573 0.650172 17.5598 0.928072 17.4387L40.7762 0.131591C41.065 0.00630099 41.3859 -0.0306515 41.6966 0.0255925C42.0072 0.0818365 42.2964 0.228643 42.5201 0.44671ZM5.47705 18.8093L17.6776 23.9186C18.0465 24.074 18.3402 24.362 18.4978 24.7232L23.7262 36.6457L38.328 4.54021L5.47705 18.8093Z" fill="black"/>
</svg>
