<svg width="27" height="30" viewBox="0 0 27 30" fill="none" xmlns="http://www.w3.org/2000/svg">
<path d="M25.0527 12.9766L25.0527 12.9766L3.98795 0.852948C3.98795 0.852946 3.98795 0.852945 3.98794 0.852943C3.5972 0.628067 3.05346 0.501287 2.48255 0.501287C1.91163 0.501287 1.36789 0.628069 0.977148 0.852948L25.0527 12.9766ZM25.0527 12.9766C26.093 13.5752 26.4983 14.2893 26.4983 14.8994C26.4983 15.5096 26.093 16.2237 25.0527 16.8224L3.98795 28.9459C3.5972 29.1708 3.05346 29.2976 2.48256 29.2976C1.91165 29.2976 1.36792 29.1708 0.977196 28.9459L0.727138 29.3804L25.0527 12.9766Z" fill="black" stroke="black"/>
</svg>
